<svg viewBox="0 0 960 300" width="960" height="300" xmlns="http://www.w3.org/2000/svg" xmlns:xlink="http://www.w3.org/1999/xlink">
  <path
    d="M0 202L22.8 205.8C45.7 209.7 91.3 217.3 137 220.5C182.7 223.7 228.3 222.3 274 222.2C319.7 222 365.3 223 411.2 223C457 223 503 222 548.8 218.2C594.7 214.3 640.3 207.7 686 206C731.7 204.3 777.3 207.7 823 209.2C868.7 210.7 914.3 210.3 937.2 210.2L960 210L960 301L937.2 301C914.3 301 868.7 301 823 301C777.3 301 731.7 301 686 301C640.3 301 594.7 301 548.8 301C503 301 457 301 411.2 301C365.3 301 319.7 301 274 301C228.3 301 182.7 301 137 301C91.3 301 45.7 301 22.8 301L0 301Z"
    fill="#0ea5e9"
  ></path>
  <path
    d="M0 252L22.8 250C45.7 248 91.3 244 137 240.7C182.7 237.3 228.3 234.7 274 236.8C319.7 239 365.3 246 411.2 246.5C457 247 503 241 548.8 237.7C594.7 234.3 640.3 233.7 686 236.2C731.7 238.7 777.3 244.3 823 244.8C868.7 245.3 914.3 240.7 937.2 238.3L960 236L960 301L937.2 301C914.3 301 868.7 301 823 301C777.3 301 731.7 301 686 301C640.3 301 594.7 301 548.8 301C503 301 457 301 411.2 301C365.3 301 319.7 301 274 301C228.3 301 182.7 301 137 301C91.3 301 45.7 301 22.8 301L0 301Z"
    fill="#1276aa"
  ></path>
  <path
    d="M0 259L22.8 259.7C45.7 260.3 91.3 261.7 137 265C182.7 268.3 228.3 273.7 274 274C319.7 274.3 365.3 269.7 411.2 268.2C457 266.7 503 268.3 548.8 270.8C594.7 273.3 640.3 276.7 686 277C731.7 277.3 777.3 274.7 823 274.3C868.7 274 914.3 276 937.2 277L960 278L960 301L937.2 301C914.3 301 868.7 301 823 301C777.3 301 731.7 301 686 301C640.3 301 594.7 301 548.8 301C503 301 457 301 411.2 301C365.3 301 319.7 301 274 301C228.3 301 182.7 301 137 301C91.3 301 45.7 301 22.8 301L0 301Z"
    fill="#0c4a6e"
  ></path>
</svg>
